<svg width="16" height="16" viewBox="0 0 16 16" fill="none" xmlns="http://www.w3.org/2000/svg">
<g clip-path="url(#clip0_1534_3149)">
<path d="M6 10C6 8.1144 6 7.1716 6.58579 6.58579C7.1716 6 8.1144 6 10 6H10.6667C12.5523 6 13.4951 6 14.0809 6.58579C14.6667 7.1716 14.6667 8.1144 14.6667 10V10.6667C14.6667 12.5523 14.6667 13.4951 14.0809 14.0809C13.4951 14.6667 12.5523 14.6667 10.6667 14.6667H10C8.1144 14.6667 7.1716 14.6667 6.58579 14.0809C6 13.4951 6 12.5523 6 10.6667V10Z" stroke="#4F5762" stroke-linecap="round" stroke-linejoin="round"/>
<path d="M11.3334 5.99992C11.3318 4.02853 11.302 3.00739 10.7282 2.30821C10.6174 2.17318 10.4936 2.04937 10.3586 1.93856C9.62096 1.33325 8.52516 1.33325 6.3335 1.33325C4.14184 1.33325 3.04602 1.33325 2.30845 1.93856C2.17342 2.04937 2.04962 2.17318 1.9388 2.30821C1.3335 3.04577 1.3335 4.1416 1.3335 6.33325C1.3335 8.52492 1.3335 9.62072 1.9388 10.3583C2.04961 10.4933 2.17342 10.6171 2.30845 10.7279C3.00764 11.3018 4.02877 11.3316 6.00016 11.3332" stroke="#4F5762" stroke-linecap="round" stroke-linejoin="round"/>
</g>
<defs>
<clipPath id="clip0_1534_3149">
<rect width="16" height="16" fill="white"/>
</clipPath>
</defs>
</svg>
