<svg width="20" height="20" viewBox="0 0 20 20" fill="none" xmlns="http://www.w3.org/2000/svg">
<path d="M9.16667 6.66699C12.8486 6.66699 15.8333 5.5477 15.8333 4.16699C15.8333 2.78628 12.8486 1.66699 9.16667 1.66699C5.48477 1.66699 2.5 2.78628 2.5 4.16699C2.5 5.5477 5.48477 6.66699 9.16667 6.66699Z" stroke="#656F7D" stroke-width="1.25"/>
<path d="M5 9.03516C5.50132 9.18582 6.06195 9.30999 6.66667 9.40174" stroke="#656F7D" stroke-width="1.25" stroke-linecap="round"/>
<path d="M9.16667 12.5C5.48477 12.5 2.5 11.3808 2.5 10" stroke="#656F7D" stroke-width="1.25" stroke-linecap="round"/>
<path d="M5 14.8682C5.50132 15.0188 6.06195 15.143 6.66667 15.2347" stroke="#656F7D" stroke-width="1.25" stroke-linecap="round"/>
<path d="M9.16667 18.3337C5.48477 18.3337 2.5 17.2144 2.5 15.8337V4.16699M15.8333 4.16699V10.0003" stroke="#656F7D" stroke-width="1.25" stroke-linecap="round" stroke-linejoin="round"/>
<path d="M15.8332 13.8949L14.8547 12.6561C14.3338 11.9967 14.0734 11.667 13.7498 11.667C13.4263 11.667 13.1658 11.9967 12.645 12.6561L11.6665 13.8949M13.7498 11.7397V18.3337" stroke="#656F7D" stroke-width="1.25" stroke-linecap="round" stroke-linejoin="round"/>
</svg>
