<svg width="20" height="20" viewBox="0 0 20 20" fill="none" xmlns="http://www.w3.org/2000/svg">
<path d="M9.16667 6.6665C12.8486 6.6665 15.8333 5.54722 15.8333 4.1665C15.8333 2.78579 12.8486 1.6665 9.16667 1.6665C5.48477 1.6665 2.5 2.78579 2.5 4.1665C2.5 5.54722 5.48477 6.6665 9.16667 6.6665Z" stroke="white" stroke-width="1.25"/>
<path d="M5 9.03467C5.50132 9.18533 6.06195 9.3095 6.66667 9.40125" stroke="white" stroke-width="1.25" stroke-linecap="round"/>
<path d="M9.16667 12.5C5.48477 12.5 2.5 11.3808 2.5 10" stroke="white" stroke-width="1.25" stroke-linecap="round"/>
<path d="M5 14.8682C5.50132 15.0188 6.06195 15.143 6.66667 15.2347" stroke="white" stroke-width="1.25" stroke-linecap="round"/>
<path d="M9.16667 18.3332C5.48477 18.3332 2.5 17.2139 2.5 15.8332V4.1665M15.8333 4.1665V9.99984" stroke="white" stroke-width="1.25" stroke-linecap="round" stroke-linejoin="round"/>
<path d="M15.8332 13.8944L14.8547 12.6556C14.3338 11.9962 14.0734 11.6665 13.7498 11.6665C13.4263 11.6665 13.1658 11.9962 12.645 12.6556L11.6665 13.8944M13.7498 11.7392V18.3332" stroke="white" stroke-width="1.25" stroke-linecap="round" stroke-linejoin="round"/>
</svg>
