<svg width="64" height="64" viewBox="0 0 64 64" fill="none" xmlns="http://www.w3.org/2000/svg">
<rect x="1" y="1" width="62" height="62" rx="15" fill="#FBEAE9"/>
<rect x="1" y="1" width="62" height="62" rx="15" stroke="#F2BCBA" stroke-width="2"/>
<path fill-rule="evenodd" clip-rule="evenodd" d="M20.4109 37.5702L28.8258 21.8727C30.1643 19.3758 33.8357 19.3758 35.1742 21.8727L43.5891 37.5702C44.8327 39.8901 43.1034 42.6667 40.4149 42.6667H23.5851C20.8966 42.6667 19.1673 39.8901 20.4109 37.5702ZM32 24C32.7364 24 33.3333 24.597 33.3333 25.3333V34.6667C33.3333 35.403 32.7364 36 32 36C31.2636 36 30.6667 35.403 30.6667 34.6667V25.3333C30.6667 24.597 31.2636 24 32 24ZM30.3333 38.3333C30.3333 39.2538 31.0795 40 32 40C32.9205 40 33.6667 39.2538 33.6667 38.3333C33.6667 37.4129 32.9205 36.6667 32 36.6667C31.0795 36.6667 30.3333 37.4129 30.3333 38.3333Z" fill="#CB1A14"/>
</svg>
