<svg width="40" height="40" viewBox="0 0 40 40" fill="none" xmlns="http://www.w3.org/2000/svg">
<rect width="40" height="40" rx="10" fill="#FFAB05" fill-opacity="0.1"/>
<path d="M20.0001 28.3334C24.6025 28.3334 28.3334 24.6025 28.3334 20.0001C28.3334 15.3977 24.6025 11.6667 20.0001 11.6667C15.3977 11.6667 11.6667 15.3977 11.6667 20.0001C11.6667 24.6025 15.3977 28.3334 20.0001 28.3334Z" stroke="#FFAB05" stroke-width="1.25"/>
<path d="M18.3333 17.4999C18.3333 16.5794 19.0794 15.8333 19.9999 15.8333C20.9204 15.8333 21.6666 16.5794 21.6666 17.4999C21.6666 17.8317 21.5697 18.1409 21.4025 18.4006C20.9044 19.1747 19.9999 19.9128 19.9999 20.8333V21.2499" stroke="#FFAB05" stroke-width="1.25" stroke-linecap="round"/>
<path d="M19.9934 24.1667H20.0009" stroke="#FFAB05" stroke-width="1.66667" stroke-linecap="round" stroke-linejoin="round"/>
</svg>
