<svg width="20" height="20" viewBox="0 0 20 20" fill="none" xmlns="http://www.w3.org/2000/svg">
<path d="M17.8728 6.83334C17.9163 7.70846 17.9163 8.74951 17.9163 10C17.9163 13.7319 17.9163 15.5979 16.757 16.7573C15.5976 17.9167 13.7316 17.9167 9.99967 17.9167C6.26772 17.9167 4.40175 17.9167 3.24237 16.7573C2.08301 15.5979 2.08301 13.7319 2.08301 10C2.08301 6.26806 2.08301 4.40209 3.24237 3.24271C4.40175 2.08334 6.26772 2.08334 9.99967 2.08334C10.8929 2.08334 11.6793 2.08334 12.3747 2.09924" stroke="#FFAB05" stroke-width="1.25" stroke-linecap="round"/>
<path d="M6.66699 9.58334C6.66699 9.58334 7.91699 9.58334 9.58366 12.5C9.58366 12.5 13.7993 4.86112 17.917 3.33334" stroke="#FFAB05" stroke-width="1.25" stroke-linecap="round" stroke-linejoin="round"/>
</svg>
