<svg width="50" height="50" viewBox="0 0 50 50" fill="none" xmlns="http://www.w3.org/2000/svg">
<path d="M15.0882 23.0889C16.0226 19.6022 19.6065 16.0182 23.0932 15.0838L44.8307 9.25842C48.3173 8.32403 50.3864 10.3931 49.452 13.8797L43.6266 35.6172C42.6922 39.1039 39.1082 42.6879 35.6215 43.6222L13.8841 49.4477C10.3974 50.3821 8.32835 48.313 9.26275 44.8263L15.0882 23.0889Z" fill="white"/>
<path d="M6.37356 14.3743C7.30796 10.8876 10.8919 7.30361 14.3786 6.36922L36.1161 0.543802C39.6028 -0.390589 41.6718 1.67844 40.7374 5.16511L34.912 26.9026C33.9776 30.3893 30.3936 33.9732 26.907 34.9076L5.16946 40.733C1.68279 41.6674 -0.386244 39.5984 0.548148 36.1117L6.37356 14.3743Z" fill="#FFAB05"/>
</svg>
