<svg width="50" height="50" viewBox="0 0 50 50" fill="none" xmlns="http://www.w3.org/2000/svg">
<path d="M15.0879 23.0889C16.0223 19.6022 19.6063 16.0182 23.093 15.0838L44.8304 9.25842C48.3171 8.32403 50.3861 10.3931 49.4517 13.8797L43.6263 35.6172C42.6919 39.1039 39.108 42.6879 35.6213 43.6222L13.8838 49.4477C10.3971 50.3821 8.32811 48.313 9.2625 44.8263L15.0879 23.0889Z" fill="black"/>
<path d="M6.37356 14.3743C7.30796 10.8876 10.8919 7.30361 14.3786 6.36922L36.1161 0.543802C39.6028 -0.390589 41.6718 1.67844 40.7374 5.16511L34.912 26.9026C33.9776 30.3893 30.3936 33.9732 26.907 34.9076L5.16946 40.733C1.68279 41.6674 -0.386244 39.5984 0.548148 36.1117L6.37356 14.3743Z" fill="#FFAB05"/>
</svg>
