<svg width="93" height="60" viewBox="0 0 93 60" fill="none" xmlns="http://www.w3.org/2000/svg">
<path fill-rule="evenodd" clip-rule="evenodd" d="M0.505606 45.0432H3.33249V33.9046L7.7473 43.616C8.24736 44.7834 8.96578 45.2158 10.3568 45.2158C11.7478 45.2158 12.4234 44.7829 12.94 43.616L17.3329 33.9046V45.0432H20.1817V33.9046C20.1817 32.8235 19.7464 32.3034 18.8331 32.0222C16.6802 31.3736 15.2449 31.9359 14.5927 33.3844L10.2657 42.9878L6.09016 33.3844C5.45947 31.9359 4.00217 31.3736 1.8279 32.0222C0.935975 32.3034 0.50122 32.8231 0.50122 33.9046L0.500732 45.0432H0.505606ZM22.5348 35.9809H25.3836V42.1021C25.3622 42.4477 25.4923 43.2268 27.0408 43.2476C27.845 43.2694 33.1731 43.2476 33.216 43.2476V35.9372H36.0649V45.9517C36.0649 48.4172 32.9943 48.9573 31.5633 48.9796H22.605V47.0987H31.5862C33.413 46.9038 33.1956 45.9958 33.1956 45.6928V44.9569H27.1714C24.366 44.9351 22.5606 43.7023 22.5397 42.2965V35.9799L22.5348 35.9809ZM83.6413 28.8862C81.9023 28.8426 80.5532 29.0161 79.4224 29.4922C79.0968 29.6231 78.5743 29.6231 78.5314 30.0332C78.7054 30.2053 78.7264 30.4869 78.879 30.7254C79.1397 31.1583 79.5969 31.7415 80.0097 32.044C80.4669 32.3906 80.9236 32.7363 81.4012 33.0393C82.2493 33.558 83.206 33.861 84.0322 34.3801C84.5108 34.6831 84.9889 35.0724 85.4675 35.3972C85.7112 35.5703 85.8589 35.8519 86.1635 35.9595V35.8941C86.0115 35.7002 85.9676 35.419 85.816 35.2018C85.5982 34.9861 85.3808 34.7907 85.1629 34.575C84.5327 33.7315 83.7495 32.9956 82.9014 32.3906C82.2054 31.9146 80.6838 31.266 80.4011 30.4661L80.3582 30.4225C80.8358 30.3788 81.4012 30.2058 81.8584 30.0758C82.5983 29.8819 83.2718 29.9246 84.0322 29.7302C84.3807 29.6429 84.7282 29.5353 85.0767 29.4272V29.2333C84.6853 28.844 84.4026 28.3248 83.9898 27.9574C82.8809 27.0058 81.6625 26.0755 80.4011 25.297C79.727 24.8645 78.857 24.5829 78.1396 24.2159C77.8778 24.086 77.4436 24.021 77.2915 23.8048C76.8992 23.3297 76.6823 22.702 76.3996 22.1391C75.7694 20.9495 75.1601 19.6304 74.6167 18.3758C74.2253 17.5323 73.9855 16.6888 73.5079 15.9103C71.2678 12.2333 68.8318 10.0058 65.0916 7.82088C64.2874 7.36665 63.3306 7.17129 62.3134 6.93375L60.6826 6.84649C60.3341 6.69524 59.9866 6.28415 59.682 6.08928C58.4426 5.31073 55.2457 3.62372 54.3319 5.85174C53.7446 7.25758 55.2019 8.6416 55.6966 9.35568C56.067 9.85305 56.5446 10.4154 56.8064 10.9777C56.9526 11.3452 57.0013 11.7349 57.1539 12.1242C57.5014 13.0758 57.8279 14.136 58.2846 15.0232C58.5283 15.4774 58.7842 15.9539 59.0888 16.3645C59.2628 16.6021 59.5675 16.7107 59.6323 17.0999C59.3277 17.5328 59.3067 18.181 59.1327 18.7225C58.3495 21.1667 58.6541 24.1946 59.7629 25.9892C60.1114 26.5297 60.9326 27.7198 62.0468 27.2651C63.0255 26.8759 62.8072 25.6431 63.0898 24.5616C63.1556 24.3022 63.1118 24.1291 63.2419 23.9556V23.9992L64.1338 25.7943C64.8079 26.854 65.9825 27.9574 66.9607 28.6933C67.4822 29.0825 67.8955 29.7535 68.5477 29.991V29.9256H68.5048C68.3742 29.7317 68.1782 29.6444 68.0042 29.4931C67.6129 29.1039 67.1781 28.6278 66.8735 28.1954C65.9606 26.9844 65.1564 25.6431 64.4385 24.2591C64.09 23.5886 63.7854 22.8532 63.5036 22.1828C63.372 21.9229 63.3721 21.5332 63.1552 21.4042C62.8286 21.8793 62.351 22.2914 62.1107 22.875C61.6974 23.8048 61.6545 24.9513 61.5024 26.1409C61.4147 26.1628 61.4537 26.1409 61.4147 26.1846C60.7197 26.012 60.4799 25.2974 60.2191 24.6924C59.567 23.1567 59.4578 20.6911 60.0232 18.9173C60.1752 18.4631 60.8283 17.0354 60.5676 16.603C60.436 16.1919 60.0022 15.9544 59.7624 15.6296C59.4797 15.2185 59.1761 14.6998 58.9801 14.2456C58.4586 13.0336 58.1979 11.6933 57.632 10.4818C57.3703 9.91947 56.9141 9.33532 56.5442 8.81661C56.1308 8.23246 55.6751 7.82137 55.3486 7.1296C55.2399 6.89206 55.0878 6.5023 55.2618 6.24246C55.3047 6.0694 55.3924 6.00492 55.5655 5.9613C55.8482 5.72376 56.6533 6.02625 56.936 6.1552C57.7402 6.48 58.4143 6.7825 59.0883 7.23625C59.393 7.45246 59.7195 7.86354 60.1109 7.97213H60.5681C61.2641 8.12338 62.0463 8.01576 62.698 8.20967C63.8507 8.5781 64.8942 9.11814 65.83 9.70277C68.6783 11.4979 71.0275 14.0502 72.6145 17.1004C72.8752 17.5978 72.9839 18.052 73.2237 18.5712C73.6809 19.6314 74.2463 20.7125 74.702 21.7513C75.1592 22.7679 75.5939 23.8068 76.2461 24.6503C76.5726 25.1045 77.8769 25.342 78.4637 25.5801C78.8989 25.774 79.5725 25.9485 79.9649 26.186C80.7038 26.6403 81.4431 27.1595 82.1386 27.6568C82.4862 27.9157 83.574 28.4567 83.6388 28.8882L83.6413 28.8862ZM61.4649 10.0906C61.1644 10.0879 60.8649 10.1243 60.5739 10.1987V10.2423H60.6168C60.7908 10.5885 61.0954 10.8265 61.3128 11.1295L61.8134 12.1678L61.8563 12.1242C62.1609 11.908 62.3134 11.5619 62.3134 11.0432C62.1828 10.8919 62.1614 10.7402 62.0527 10.5889C61.9221 10.3727 61.6394 10.2641 61.4649 10.0916V10.0906Z" fill="#00678C"/>
<path fill-rule="evenodd" clip-rule="evenodd" d="M38.2378 45.0432H46.4143C47.3711 45.0432 48.2849 44.8493 49.0238 44.5027C50.2633 43.9404 50.8506 43.1841 50.8506 42.1889V40.1126C50.8506 39.3127 50.1765 38.555 48.8289 38.0363C48.1329 37.777 47.2629 37.6252 46.4148 37.6252H42.9787C41.826 37.6252 41.2825 37.2786 41.13 36.5224C41.1085 36.4361 41.1085 36.3493 41.1085 36.263V34.9866C41.1085 34.9212 41.1085 34.8354 41.13 34.7491C41.2821 34.1649 41.5867 34.0132 42.5922 33.9056H50.9641V32.0232H43.005C41.8523 32.0232 41.2435 32.0886 40.6996 32.2617C39.0249 32.7804 38.2856 33.6026 38.2856 35.0511V36.6959C38.2856 37.9709 39.7209 39.0534 42.1564 39.3127C42.4172 39.3345 42.6999 39.3345 42.9826 39.3345H45.9186C46.0273 39.3345 46.1355 39.3345 46.2223 39.3564C47.1142 39.4426 47.5056 39.5939 47.7663 39.9177C47.9403 40.0908 47.9842 40.2425 47.9842 40.4374V42.0808C47.9842 42.2747 47.8536 42.5355 47.5928 42.7512C47.3321 42.9669 46.9178 43.1187 46.3743 43.1405C46.2657 43.1405 46.2013 43.1623 46.0917 43.1623H38.2378V45.0432ZM68.5512 41.7778C68.5512 43.7023 70.0134 44.7834 72.9231 45.0006C73.2058 45.0224 73.4666 45.0432 73.7493 45.0432H81.143V43.1623H73.6845C72.0307 43.1623 71.4005 42.7512 71.4005 41.7565V32.0232H68.5459V41.7783L68.5512 41.7778ZM52.6549 41.8636V35.1592C52.6549 33.4504 53.8724 32.4115 56.2436 32.0877C56.5043 32.0659 56.7651 32.044 57.0039 32.044H62.3964C62.6791 32.044 62.9189 32.0659 63.2016 32.0877C65.5718 32.4115 66.7674 33.4499 66.7674 35.1592V41.8636C66.7674 43.2476 66.2678 43.9835 65.0927 44.4814L67.8757 46.9896H64.5926L62.3311 44.9569L60.0472 45.0869H57.0029C56.4451 45.0841 55.8898 45.0116 55.3502 44.8711C53.5468 44.3728 52.6549 43.4217 52.6549 41.8636ZM55.7206 41.7133C55.7206 41.7996 55.7693 41.8854 55.7864 41.9945C55.9385 42.7726 56.6773 43.2055 57.8081 43.2055H60.3747L58.0265 41.0855H61.3095L63.3751 42.9461C63.7675 42.7294 64.0063 42.4264 64.093 42.0371C64.115 41.9509 64.115 41.8432 64.115 41.756V35.3318C64.115 35.2455 64.115 35.1597 64.093 35.0724C63.941 34.3375 63.2021 33.9269 62.0928 33.9269H57.8086C56.5472 33.9269 55.7211 34.4674 55.7211 35.3318L55.7206 41.7133Z" fill="#CE8B2C"/>
</svg>
