<svg width="41" height="40" viewBox="0 0 41 40" fill="none" xmlns="http://www.w3.org/2000/svg">
<path d="M18.8333 13.3333C26.1971 13.3333 32.1667 11.0947 32.1667 8.33325C32.1667 5.57183 26.1971 3.33325 18.8333 3.33325C11.4695 3.33325 5.5 5.57183 5.5 8.33325C5.5 11.0947 11.4695 13.3333 18.8333 13.3333Z" stroke="#FFAB05" stroke-width="2.5"/>
<path d="M10.5 18.0696C11.5026 18.3709 12.6239 18.6192 13.8333 18.8027" stroke="#FFAB05" stroke-width="2.5" stroke-linecap="round"/>
<path d="M18.8333 25C11.4695 25 5.5 22.7615 5.5 20" stroke="#FFAB05" stroke-width="2.5" stroke-linecap="round"/>
<path d="M10.5 29.7363C11.5026 30.0377 12.6239 30.286 13.8333 30.4695" stroke="#FFAB05" stroke-width="2.5" stroke-linecap="round"/>
<path d="M18.8333 36.6666C11.4695 36.6666 5.5 34.4281 5.5 31.6666V8.33325M32.1667 8.33325V19.9999" stroke="#FFAB05" stroke-width="2.5" stroke-linecap="round" stroke-linejoin="round"/>
<path d="M32.1666 27.7891L30.2096 25.3114C29.1679 23.9926 28.6471 23.3333 27.9999 23.3333C27.3528 23.3333 26.8319 23.9926 25.7903 25.3114L23.8333 27.7891M27.9999 23.4786V36.6666" stroke="#FFAB05" stroke-width="2.5" stroke-linecap="round" stroke-linejoin="round"/>
</svg>
