<svg width="59" height="60" viewBox="0 0 59 60" fill="none" xmlns="http://www.w3.org/2000/svg">
<path d="M43.8852 43.6781C44.2655 40.4987 44.1515 40.0324 46.5113 40.5475L47.1104 40.6003C48.9249 40.6831 51.2985 40.3074 52.6929 39.6573C55.6947 38.2594 57.4747 35.9256 54.5148 36.5389C47.7631 37.9367 47.2989 35.6423 47.2989 35.6423C54.4283 25.0263 57.4087 11.5503 54.8361 8.2517C47.8196 -0.745816 35.6741 3.5089 35.4708 3.61937L35.4061 3.63136C34.0721 3.35358 32.5791 3.18761 30.9019 3.1604C27.8465 3.11001 25.5281 3.96424 23.7695 5.30291C23.7695 5.30291 2.10254 -3.6554 3.11053 16.5689C3.3249 20.8712 9.2555 49.1236 16.3289 40.59C18.9141 37.4696 21.4126 34.8312 21.4126 34.8312C22.6532 35.6584 24.1385 36.0803 25.6963 35.9287L25.8167 35.8257C25.779 36.2131 25.7957 36.5921 25.8649 37.0407C24.0431 39.0839 24.5784 39.4427 20.9353 40.1952C17.2496 40.9575 19.415 42.3148 20.8284 42.6695C22.5423 43.0996 26.5073 43.709 29.187 39.945L29.0803 40.3745C29.7951 40.9484 29.7468 44.4993 29.8482 47.0364C29.9496 49.5737 30.1189 51.9413 30.6343 53.3372C31.1496 54.7329 31.7577 58.3284 36.5455 57.2987C40.547 56.4381 43.6064 55.1997 43.8852 43.6781Z" fill="black" stroke="black" stroke-width="2.08595"/>
<path d="M54.5161 36.5388C47.7637 37.9366 47.2995 35.6423 47.2995 35.6423C54.429 25.0256 57.4093 11.5493 54.8373 8.25109C47.8208 -0.745892 35.6747 3.5091 35.472 3.61957L35.4068 3.63129C34.0727 3.35337 32.5797 3.1878 30.9018 3.16032C27.8464 3.11007 25.5288 3.96417 23.7702 5.30257C23.7702 5.30257 2.10279 -3.65534 3.11051 16.5688C3.32488 20.8714 9.25535 49.1238 16.329 40.5902C18.9144 37.4698 21.4124 34.8314 21.4124 34.8314C22.6532 35.6586 24.1385 36.0805 25.6957 35.9289L25.8166 35.8259C25.779 36.2133 25.7962 36.5923 25.8651 37.0409C24.0428 39.0841 24.5783 39.4428 20.9355 40.1954C17.2494 40.9577 19.4148 42.315 20.8286 42.6697C22.5426 43.0998 26.5078 43.7092 29.187 39.9452L29.0802 40.3747C29.7942 40.9486 30.2956 44.1078 30.2115 46.9716C30.1275 49.8355 30.0714 51.8017 30.634 53.3374C31.1966 54.8732 31.7573 58.3286 36.546 57.2989C40.5475 56.4383 42.6211 54.2082 42.9096 50.4883C43.1143 47.8437 43.5775 48.2347 43.6068 45.8703L43.9784 44.7509C44.4068 41.166 44.0464 40.0095 46.5117 40.5474L47.1108 40.6002C48.9253 40.683 51.3001 40.3073 52.6938 39.6572C55.6951 38.2594 57.4751 35.9256 54.5158 36.5388H54.5161Z" fill="#336791"/>
<path d="M29.4767 38.5938C29.2908 45.2643 29.5235 51.9814 30.1738 53.6139C30.8246 55.2463 32.2173 58.4216 37.0065 57.3919C41.0076 56.5311 42.4634 54.8652 43.0951 51.1882C43.5604 48.4828 44.4573 40.9695 44.5724 39.4301" stroke="white" stroke-width="0.695318" stroke-linecap="round" stroke-linejoin="round"/>
<path d="M23.7368 5.15365C23.7368 5.15365 2.05466 -3.73973 3.06265 16.4844C3.27703 20.787 9.2079 49.0403 16.2814 40.5064C18.8663 37.3855 21.204 34.9379 21.204 34.9379" stroke="white" stroke-width="0.695318" stroke-linecap="round" stroke-linejoin="round"/>
<path d="M35.4488 3.53039C34.6983 3.76654 47.5097 -1.1697 54.7906 8.16689C57.3625 11.4653 54.3822 24.9415 47.2528 35.5585" stroke="white" stroke-width="0.695318" stroke-linecap="round" stroke-linejoin="round"/>
<path d="M47.2532 35.5584C47.2532 35.5584 47.7178 37.8535 54.4703 36.4547C57.4289 35.8415 55.6484 38.1756 52.6478 39.574C50.1852 40.721 44.6642 41.015 44.5739 39.43C44.3418 35.3407 47.4796 36.5831 47.2532 35.5584ZM47.2532 35.5584C47.0485 34.6356 45.6453 33.7299 44.717 31.4714C43.9067 29.5001 33.6027 14.3829 47.5745 16.6281C48.0864 16.5218 43.9305 3.29098 30.8549 3.07584C17.7822 2.86069 18.2111 19.2096 18.2111 19.2096" stroke="white" stroke-width="0.695318" stroke-linecap="round" stroke-linejoin="bevel"/>
<path d="M25.8176 36.957C23.9951 39.0001 24.5311 39.3588 20.8881 40.1116C17.202 40.8741 19.3677 42.2311 20.7811 42.5857C22.495 43.0161 26.4602 43.6254 29.1395 39.8605C29.9554 38.7142 29.1346 36.8852 28.0139 36.4189C27.4724 36.1938 26.7483 35.9117 25.8176 36.957Z" stroke="white" stroke-width="0.695318" stroke-linecap="round" stroke-linejoin="round"/>
<path d="M25.6974 36.9212C25.5138 35.72 26.0908 34.2905 26.7091 32.6181C27.6382 30.1089 29.7821 27.5993 28.0671 19.6398C26.7888 13.7084 18.2147 18.4054 18.2093 19.2096C18.2041 20.0136 18.5971 23.2861 18.0661 27.097C17.3731 32.0697 21.219 36.2754 25.6476 35.8451" stroke="white" stroke-width="0.695318" stroke-linecap="round" stroke-linejoin="round"/>
<path d="M23.6575 19.089C23.6188 19.3637 24.1586 20.0966 24.8624 20.1946C25.565 20.2929 26.1664 19.7201 26.2045 19.4457C26.2426 19.171 25.7035 18.8684 24.9994 18.7701C24.2964 18.6716 23.6948 18.815 23.6576 19.089H23.6575Z" fill="white" stroke="white" stroke-width="0.231771"/>
<path d="M45.0583 18.5291C45.0964 18.8038 44.5573 19.5368 43.8534 19.6347C43.1503 19.7331 42.5489 19.1602 42.5104 18.8858C42.4732 18.6111 43.0124 18.3086 43.7157 18.2102C44.4189 18.1119 45.0202 18.2551 45.0583 18.5292V18.5291Z" fill="white" stroke="white" stroke-width="0.115885"/>
<path d="M47.5739 16.6279C47.6897 18.7826 47.1114 20.2502 47.0385 22.5438C46.9306 25.8778 48.6224 29.6937 46.0732 33.5144" stroke="white" stroke-width="0.695318" stroke-linecap="round" stroke-linejoin="round"/>
</svg>
