<svg width="16" height="16" viewBox="0 0 16 16" fill="none" xmlns="http://www.w3.org/2000/svg">
<g clip-path="url(#clip0_1821_4203)">
<path d="M12.7396 7.09898C12.7302 8.03722 12.4857 8.95814 12.0284 9.77749C11.5083 10.7278 10.7269 11.5092 9.77659 12.0293C8.69155 12.612 7.44524 12.8224 6.22905 12.6282C5.01287 12.434 3.89407 11.8459 3.04448 10.9543C2.19489 10.0626 1.6615 8.91673 1.52622 7.69258C1.39094 6.46844 1.66126 5.23373 2.29566 4.1781C2.93006 3.12246 3.89345 2.30427 5.03788 1.84918C6.18231 1.39409 7.44449 1.32728 8.63058 1.65899C9.81666 1.99071 10.8611 2.70261 11.6034 3.68537C12.3457 4.66813 12.7448 5.86739 12.7396 7.09898Z" stroke="#FFAB05" stroke-miterlimit="10" stroke-linecap="square"/>
<path d="M14.0546 14.0559C13.9092 14.2026 13.7361 14.3191 13.5454 14.3986C13.3547 14.4781 13.1501 14.519 12.9435 14.519C12.7369 14.519 12.5324 14.4781 12.3416 14.3986C12.1509 14.3191 11.9779 14.2026 11.8324 14.0559L9.77612 12.0292C10.7264 11.5091 11.5078 10.7276 12.028 9.77734L14.0546 11.8099C14.205 11.9558 14.3245 12.1303 14.4062 12.3232C14.4878 12.5161 14.5298 12.7234 14.5298 12.9329C14.5298 13.1424 14.4878 13.3497 14.4062 13.5426C14.3245 13.7355 14.205 13.91 14.0546 14.0559V14.0559Z" stroke="#FFAB05" stroke-linecap="round" stroke-linejoin="round"/>
<path d="M4.37231 6.85008C4.37231 6.19313 4.63329 5.56309 5.09782 5.09855C5.56236 4.63402 6.1924 4.37305 6.84935 4.37305" stroke="#FFAB05" stroke-linecap="round" stroke-linejoin="round"/>
</g>
<defs>
<clipPath id="clip0_1821_4203">
<rect width="16" height="16" fill="white"/>
</clipPath>
</defs>
</svg>
