<svg width="20" height="20" viewBox="0 0 20 20" fill="none" xmlns="http://www.w3.org/2000/svg">
<path d="M7.93408 12.0297L12.0282 7.93555" stroke="#2A2E34" stroke-width="1.25" stroke-linecap="round"/>
<path d="M10.4743 12.5903C11.0907 13.5407 10.9262 14.5148 10.2141 15.2269L7.71807 17.7229C6.90273 18.5383 5.58081 18.5383 4.76548 17.7229L2.27703 15.2345C1.46169 14.4192 1.46169 13.0973 2.27703 12.2819L4.77304 9.78584C5.35799 9.20092 6.46976 8.86309 7.42514 9.55492M12.5908 10.4738C13.5411 11.0902 14.5152 10.9258 15.2273 10.2137L17.7233 7.71762C18.5387 6.90228 18.5387 5.58035 17.7233 4.765L15.2349 2.27655C14.4196 1.4612 13.0977 1.4612 12.2823 2.27655L9.78625 4.77258C9.20133 5.35753 8.86358 6.4693 9.55542 7.42469" stroke="#2A2E34" stroke-width="1.25" stroke-linecap="round" stroke-linejoin="round"/>
</svg>
