<svg width="20" height="20" viewBox="0 0 20 20" fill="none" xmlns="http://www.w3.org/2000/svg">
<path d="M3.33325 14.9841V8.08969C3.33325 5.06188 3.33325 3.54798 4.30956 2.60736C5.28588 1.66675 6.85722 1.66675 9.99992 1.66675C13.1426 1.66675 14.714 1.66675 15.6903 2.60736C16.6666 3.54798 16.6666 5.06188 16.6666 8.08969V14.9841C16.6666 16.9057 16.6666 17.8664 16.0226 18.2103C14.7753 18.8762 12.4359 16.6544 11.3249 15.9854C10.6806 15.5974 10.3584 15.4034 9.99992 15.4034C9.64142 15.4034 9.31925 15.5974 8.67492 15.9854C7.56392 16.6544 5.22448 18.8762 3.97729 18.2103C3.33325 17.8664 3.33325 16.9057 3.33325 14.9841Z" stroke="#2A2E34" stroke-width="1.25" stroke-linecap="round" stroke-linejoin="round"/>
<path d="M3.33325 5.83325H16.6666" stroke="#2A2E34" stroke-width="1.25"/>
</svg>
