<svg width="23" height="22" viewBox="0 0 23 22" fill="none" xmlns="http://www.w3.org/2000/svg">
<path d="M11.518 18.6415C9.43067 18.6415 7.34338 18.31 5.36359 17.6471C4.61109 17.3873 4.03775 16.8588 3.78692 16.169C3.52713 15.4792 3.61671 14.7177 4.0288 14.0369L5.059 12.3258C5.274 11.9675 5.47109 11.2508 5.47109 10.8298V8.24084C5.47109 4.90834 8.18546 2.19397 11.518 2.19397C14.8505 2.19397 17.5648 4.90834 17.5648 8.24084V10.8298C17.5648 11.2419 17.7619 11.9675 17.9769 12.3348L18.9982 14.0369C19.3834 14.6819 19.455 15.4613 19.1953 16.169C18.9355 16.8767 18.3711 17.4142 17.6634 17.6471C15.6925 18.31 13.6053 18.6415 11.518 18.6415ZM11.518 3.53772C8.929 3.53772 6.81484 5.64293 6.81484 8.24084V10.8298C6.81484 11.4838 6.54609 12.4513 6.21463 13.0156L5.18442 14.7267C4.98734 15.0581 4.93359 15.4075 5.05005 15.7031C5.15755 16.0077 5.4263 16.2406 5.79359 16.3661C9.53817 17.6202 13.5067 17.6202 17.2513 16.3661C17.5738 16.2586 17.8246 16.0167 17.9411 15.6942C18.0575 15.3717 18.0307 15.0223 17.8515 14.7267L16.8213 13.0156C16.4809 12.4333 16.2211 11.4748 16.2211 10.8208V8.24084C16.2211 5.64293 14.1159 3.53772 11.518 3.53772Z" fill="#5D5667"/>
<path d="M13.1844 3.77963C13.1217 3.77963 13.059 3.77067 12.9963 3.75275C12.7365 3.68109 12.4856 3.62734 12.2438 3.5915C11.4823 3.49296 10.7477 3.54671 10.0579 3.75275C9.80709 3.83338 9.53834 3.75275 9.36813 3.56463C9.19792 3.3765 9.14417 3.10775 9.24271 2.86588C9.61001 1.92525 10.5058 1.30713 11.5271 1.30713C12.5483 1.30713 13.4442 1.9163 13.8115 2.86588C13.901 3.10775 13.8563 3.3765 13.686 3.56463C13.5517 3.70796 13.3635 3.77963 13.1844 3.77963Z" fill="#5D5667"/>
<path d="M11.5178 20.684C10.6309 20.684 9.77095 20.3256 9.14386 19.6985C8.51678 19.0715 8.15845 18.2115 8.15845 17.3246H9.5022C9.5022 17.8531 9.7172 18.3727 10.0934 18.749C10.4697 19.1252 10.9893 19.3402 11.5178 19.3402C12.6287 19.3402 13.5334 18.4354 13.5334 17.3246H14.8772C14.8772 19.179 13.3722 20.684 11.5178 20.684Z" fill="#292D32"/>
</svg>
