<svg width="16" height="16" viewBox="0 0 16 16" fill="none" xmlns="http://www.w3.org/2000/svg">
<path d="M6.66675 8.00033C6.66675 8.35395 6.80722 8.69309 7.05727 8.94313C7.30732 9.19318 7.64646 9.33366 8.00008 9.33366C8.3537 9.33366 8.69284 9.19318 8.94289 8.94313C9.19294 8.69309 9.33341 8.35395 9.33341 8.00033C9.33341 7.6467 9.19294 7.30757 8.94289 7.05752C8.69284 6.80747 8.3537 6.66699 8.00008 6.66699C7.64646 6.66699 7.30732 6.80747 7.05727 7.05752C6.80722 7.30757 6.66675 7.6467 6.66675 8.00033ZM6.66675 4.00033C6.66675 4.35395 6.80722 4.69309 7.05727 4.94313C7.30732 5.19318 7.64646 5.33366 8.00008 5.33366C8.3537 5.33366 8.69284 5.19318 8.94289 4.94313C9.19294 4.69309 9.33341 4.35395 9.33341 4.00033C9.33341 3.6467 9.19294 3.30756 8.94289 3.05752C8.69284 2.80747 8.3537 2.66699 8.00008 2.66699C7.64646 2.66699 7.30732 2.80747 7.05727 3.05752C6.80722 3.30756 6.66675 3.6467 6.66675 4.00033ZM6.66675 12.0003C6.66675 12.3539 6.80722 12.6931 7.05727 12.9431C7.30732 13.1932 7.64646 13.3337 8.00008 13.3337C8.3537 13.3337 8.69284 13.1932 8.94289 12.9431C9.19294 12.6931 9.33341 12.3539 9.33341 12.0003C9.33341 11.6467 9.19294 11.3076 8.94289 11.0575C8.69284 10.8075 8.3537 10.667 8.00008 10.667C7.64646 10.667 7.30732 10.8075 7.05727 11.0575C6.80722 11.3076 6.66675 11.6467 6.66675 12.0003Z" fill="black"/>
</svg>
